<svg width="60" height="60" viewBox="0 0 80 80" fill="none" xmlns="http://www.w3.org/2000/svg">
<g clip-path="url(#clip0_3_126)">
<path d="M40.2667 20.2667C43.9333 20.2667 46.9333 23.2667 46.9333 26.9333C46.9333 30.6 43.9333 33.6 40.2667 33.6C36.6 33.6 33.6 30.6 33.6 26.9333C33.6 23.2667 36.6 20.2667 40.2667 20.2667ZM40.2667 53.6C49.2667 53.6 59.6 57.9 60.2667 60.2667H20.2667C21.0333 57.8667 31.3 53.6 40.2667 53.6ZM40.2667 13.6C32.9 13.6 26.9333 19.5667 26.9333 26.9333C26.9333 34.3 32.9 40.2667 40.2667 40.2667C47.6333 40.2667 53.6 34.3 53.6 26.9333C53.6 19.5667 47.6333 13.6 40.2667 13.6ZM40.2667 46.9333C31.3667 46.9333 13.6 51.4 13.6 60.2667V66.9333H66.9333V60.2667C66.9333 51.4 49.1667 46.9333 40.2667 46.9333Z" fill="#00A99F"/>
</g>
<defs>
<clipPath id="clip0_3_126">
<rect width="80" height="80" fill="white"/>
</clipPath>
</defs>
</svg>
