<svg width="283" height="33" viewBox="0 0 283 33" fill="none" xmlns="http://www.w3.org/2000/svg">
<path d="M14.008 24L6.456 14.08V24H0.984V1.536H6.456V11.392L13.944 1.536H20.376L11.672 12.544L20.696 24H14.008ZM22.9445 7.232C23.0298 4.94933 23.7765 3.18933 25.1845 1.952C26.5925 0.714666 28.5018 0.0959988 30.9125 0.0959988C32.5125 0.0959988 33.8778 0.373332 35.0085 0.927999C36.1605 1.48267 37.0245 2.24 37.6005 3.2C38.1978 4.16 38.4965 5.23733 38.4965 6.432C38.4965 7.84 38.1445 8.992 37.4405 9.888C36.7365 10.7627 35.9152 11.36 34.9765 11.68V11.808C36.1925 12.2133 37.1525 12.8853 37.8565 13.824C38.5605 14.7627 38.9125 15.968 38.9125 17.44C38.9125 18.7627 38.6032 19.936 37.9845 20.96C37.3872 21.9627 36.5018 22.752 35.3285 23.328C34.1765 23.904 32.8005 24.192 31.2005 24.192C28.6405 24.192 26.5925 23.5627 25.0565 22.304C23.5418 21.0453 22.7418 19.1467 22.6565 16.608H27.9685C27.9898 17.5467 28.2565 18.2933 28.7685 18.848C29.2805 19.3813 30.0272 19.648 31.0085 19.648C31.8405 19.648 32.4805 19.4133 32.9285 18.944C33.3978 18.4533 33.6325 17.8133 33.6325 17.024C33.6325 16 33.3018 15.264 32.6405 14.816C32.0005 14.3467 30.9658 14.112 29.5365 14.112H28.5125V9.664H29.5365C30.6245 9.664 31.4992 9.48267 32.1605 9.12C32.8432 8.736 33.1845 8.064 33.1845 7.104C33.1845 6.336 32.9712 5.73867 32.5445 5.312C32.1178 4.88533 31.5312 4.672 30.7845 4.672C29.9738 4.672 29.3658 4.91733 28.9605 5.408C28.5765 5.89867 28.3525 6.50667 28.2885 7.232H22.9445Z" fill="#272444"/>
<path d="M65.6128 1.536V5.92H59.6608V24H54.1888V5.92H48.2368V1.536H65.6128ZM73.831 9.12C74.471 8.13867 75.271 7.37067 76.231 6.816C77.191 6.24 78.2577 5.952 79.431 5.952V11.744H77.927C76.5617 11.744 75.5377 12.0427 74.855 12.64C74.1723 13.216 73.831 14.24 73.831 15.712V24H68.359V6.144H73.831V9.12ZM80.9585 15.04C80.9585 13.2053 81.2998 11.5947 81.9825 10.208C82.6865 8.82133 83.6358 7.75467 84.8305 7.008C86.0252 6.26133 87.3585 5.888 88.8305 5.888C90.0892 5.888 91.1878 6.144 92.1265 6.656C93.0865 7.168 93.8225 7.84 94.3345 8.672V6.144H99.8065V24H94.3345V21.472C93.8012 22.304 93.0545 22.976 92.0945 23.488C91.1558 24 90.0572 24.256 88.7985 24.256C87.3478 24.256 86.0252 23.8827 84.8305 23.136C83.6358 22.368 82.6865 21.2907 81.9825 19.904C81.2998 18.496 80.9585 16.8747 80.9585 15.04ZM94.3345 15.072C94.3345 13.7067 93.9505 12.6293 93.1825 11.84C92.4358 11.0507 91.5185 10.656 90.4305 10.656C89.3425 10.656 88.4145 11.0507 87.6465 11.84C86.8998 12.608 86.5265 13.6747 86.5265 15.04C86.5265 16.4053 86.8998 17.4933 87.6465 18.304C88.4145 19.0933 89.3425 19.488 90.4305 19.488C91.5185 19.488 92.4358 19.0933 93.1825 18.304C93.9505 17.5147 94.3345 16.4373 94.3345 15.072ZM111.797 18.88L115.669 6.144H121.493L115.157 24H108.405L102.069 6.144H107.925L111.797 18.88ZM140.628 14.784C140.628 15.296 140.597 15.8293 140.533 16.384H128.149C128.234 17.4933 128.586 18.3467 129.205 18.944C129.845 19.52 130.623 19.808 131.541 19.808C132.906 19.808 133.855 19.232 134.389 18.08H140.213C139.914 19.2533 139.37 20.3093 138.581 21.248C137.813 22.1867 136.842 22.9227 135.669 23.456C134.495 23.9893 133.183 24.256 131.733 24.256C129.983 24.256 128.426 23.8827 127.061 23.136C125.695 22.3893 124.629 21.3227 123.861 19.936C123.093 18.5493 122.709 16.928 122.709 15.072C122.709 13.216 123.082 11.5947 123.829 10.208C124.597 8.82133 125.663 7.75467 127.029 7.008C128.394 6.26133 129.962 5.888 131.733 5.888C133.461 5.888 134.997 6.25067 136.341 6.976C137.685 7.70133 138.73 8.736 139.477 10.08C140.245 11.424 140.628 12.992 140.628 14.784ZM135.029 13.344C135.029 12.4053 134.709 11.6587 134.069 11.104C133.429 10.5493 132.629 10.272 131.669 10.272C130.751 10.272 129.973 10.5387 129.333 11.072C128.714 11.6053 128.33 12.3627 128.181 13.344H135.029ZM148.987 0.32V24H143.515V0.32H148.987ZM158.646 15.04C158.646 13.2053 158.987 11.5947 159.67 10.208C160.374 8.82133 161.323 7.75467 162.518 7.008C163.713 6.26133 165.046 5.888 166.518 5.888C167.777 5.888 168.875 6.144 169.814 6.656C170.774 7.168 171.51 7.84 172.022 8.672V6.144H177.494V24H172.022V21.472C171.489 22.304 170.742 22.976 169.782 23.488C168.843 24 167.745 24.256 166.486 24.256C165.035 24.256 163.713 23.8827 162.518 23.136C161.323 22.368 160.374 21.2907 159.67 19.904C158.987 18.496 158.646 16.8747 158.646 15.04ZM172.022 15.072C172.022 13.7067 171.638 12.6293 170.87 11.84C170.123 11.0507 169.206 10.656 168.118 10.656C167.03 10.656 166.102 11.0507 165.334 11.84C164.587 12.608 164.214 13.6747 164.214 15.04C164.214 16.4053 164.587 17.4933 165.334 18.304C166.102 19.0933 167.03 19.488 168.118 19.488C169.206 19.488 170.123 19.0933 170.87 18.304C171.638 17.5147 172.022 16.4373 172.022 15.072ZM188.237 5.888C189.495 5.888 190.594 6.144 191.533 6.656C192.493 7.168 193.229 7.84 193.741 8.672V6.144H199.213V23.968C199.213 25.6107 198.882 27.0933 198.221 28.416C197.581 29.76 196.589 30.8267 195.245 31.616C193.922 32.4053 192.269 32.8 190.285 32.8C187.639 32.8 185.495 32.1707 183.853 30.912C182.21 29.6747 181.271 27.9893 181.037 25.856H186.445C186.615 26.5387 187.021 27.072 187.661 27.456C188.301 27.8613 189.09 28.064 190.029 28.064C191.159 28.064 192.055 27.7333 192.717 27.072C193.399 26.432 193.741 25.3973 193.741 23.968V21.44C193.207 22.272 192.471 22.9547 191.533 23.488C190.594 24 189.495 24.256 188.237 24.256C186.765 24.256 185.431 23.8827 184.237 23.136C183.042 22.368 182.093 21.2907 181.389 19.904C180.706 18.496 180.365 16.8747 180.365 15.04C180.365 13.2053 180.706 11.5947 181.389 10.208C182.093 8.82133 183.042 7.75467 184.237 7.008C185.431 6.26133 186.765 5.888 188.237 5.888ZM193.741 15.072C193.741 13.7067 193.357 12.6293 192.589 11.84C191.842 11.0507 190.925 10.656 189.837 10.656C188.749 10.656 187.821 11.0507 187.053 11.84C186.306 12.608 185.933 13.6747 185.933 15.04C185.933 16.4053 186.306 17.4933 187.053 18.304C187.821 19.0933 188.749 19.488 189.837 19.488C190.925 19.488 191.842 19.0933 192.589 18.304C193.357 17.5147 193.741 16.4373 193.741 15.072ZM220.003 14.784C220.003 15.296 219.972 15.8293 219.908 16.384H207.524C207.609 17.4933 207.961 18.3467 208.58 18.944C209.22 19.52 209.998 19.808 210.916 19.808C212.281 19.808 213.23 19.232 213.764 18.08H219.588C219.289 19.2533 218.745 20.3093 217.956 21.248C217.188 22.1867 216.217 22.9227 215.044 23.456C213.87 23.9893 212.558 24.256 211.108 24.256C209.358 24.256 207.801 23.8827 206.436 23.136C205.07 22.3893 204.004 21.3227 203.236 19.936C202.468 18.5493 202.084 16.928 202.084 15.072C202.084 13.216 202.457 11.5947 203.204 10.208C203.972 8.82133 205.038 7.75467 206.404 7.008C207.769 6.26133 209.337 5.888 211.108 5.888C212.836 5.888 214.372 6.25067 215.716 6.976C217.06 7.70133 218.105 8.736 218.852 10.08C219.62 11.424 220.003 12.992 220.003 14.784ZM214.404 13.344C214.404 12.4053 214.084 11.6587 213.444 11.104C212.804 10.5493 212.004 10.272 211.044 10.272C210.126 10.272 209.348 10.5387 208.708 11.072C208.089 11.6053 207.705 12.3627 207.556 13.344H214.404ZM233.77 5.952C235.861 5.952 237.525 6.63467 238.762 8C240.021 9.344 240.65 11.2 240.65 13.568V24H235.21V14.304C235.21 13.1093 234.901 12.1813 234.282 11.52C233.664 10.8587 232.832 10.528 231.786 10.528C230.741 10.528 229.909 10.8587 229.29 11.52C228.672 12.1813 228.362 13.1093 228.362 14.304V24H222.89V6.144H228.362V8.512C228.917 7.72267 229.664 7.104 230.602 6.656C231.541 6.18667 232.597 5.952 233.77 5.952ZM243.365 15.072C243.365 13.216 243.738 11.5947 244.485 10.208C245.253 8.82133 246.309 7.75467 247.653 7.008C249.018 6.26133 250.575 5.888 252.325 5.888C254.565 5.888 256.431 6.47467 257.925 7.648C259.439 8.82133 260.431 10.4747 260.901 12.608H255.077C254.586 11.2427 253.637 10.56 252.229 10.56C251.226 10.56 250.426 10.9547 249.829 11.744C249.231 12.512 248.933 13.6213 248.933 15.072C248.933 16.5227 249.231 17.6427 249.829 18.432C250.426 19.2 251.226 19.584 252.229 19.584C253.637 19.584 254.586 18.9013 255.077 17.536H260.901C260.431 19.6267 259.439 21.2693 257.925 22.464C256.41 23.6587 254.543 24.256 252.325 24.256C250.575 24.256 249.018 23.8827 247.653 23.136C246.309 22.3893 245.253 21.3227 244.485 19.936C243.738 18.5493 243.365 16.928 243.365 15.072ZM282.068 6.144L270.868 32.48H264.98L269.076 23.392L261.812 6.144H267.924L272.052 17.312L276.148 6.144H282.068Z" fill="#00A99F"/>
</svg>
