<svg width="100" height="100" viewBox="0 0 100 100" fill="none" xmlns="http://www.w3.org/2000/svg">
<g clip-path="url(#clip0_279_497)">
<path d="M85.4167 12.5L84.75 12.625L62.5 21.25L37.5 12.5L14 20.4167C13.125 20.7083 12.5 21.4583 12.5 22.4167V85.4167C12.5 86.5833 13.4167 87.5 14.5833 87.5L15.25 87.375L37.5 78.75L62.5 87.5L86 79.5833C86.875 79.2917 87.5 78.5417 87.5 77.5833V14.5833C87.5 13.4167 86.5833 12.5 85.4167 12.5ZM41.6667 22.7917L58.3333 28.625V77.2083L41.6667 71.375V22.7917ZM20.8333 26.9167L33.3333 22.7083V71.4583L20.8333 76.2917V26.9167ZM79.1667 73.0833L66.6667 77.2917V28.5833L79.1667 23.75V73.0833Z" fill="#00A99F"/>
</g>
<defs>
<clipPath id="clip0_279_497">
<rect width="100" height="100" fill="white"/>
</clipPath>
</defs>
</svg>
