<svg width="42" height="42" viewBox="0 0 42 42" fill="none" xmlns="http://www.w3.org/2000/svg">
<path d="M30.3958 23.0833C31.9583 23.0833 33.3333 22.2291 34.0417 20.9375L41.5 7.41663C42.2708 6.04163 41.2708 4.33329 39.6875 4.33329H8.85417L6.89584 0.166626H0.0833359V4.33329H4.25L11.75 20.1458L8.9375 25.2291C7.41667 28.0208 9.41667 31.4166 12.5833 31.4166H37.5833V27.25H12.5833L14.875 23.0833H30.3958ZM10.8333 8.49996H36.1458L30.3958 18.9166H15.7708L10.8333 8.49996ZM12.5833 33.5C10.2917 33.5 8.4375 35.375 8.4375 37.6666C8.4375 39.9583 10.2917 41.8333 12.5833 41.8333C14.875 41.8333 16.75 39.9583 16.75 37.6666C16.75 35.375 14.875 33.5 12.5833 33.5ZM33.4167 33.5C31.125 33.5 29.2708 35.375 29.2708 37.6666C29.2708 39.9583 31.125 41.8333 33.4167 41.8333C35.7083 41.8333 37.5833 39.9583 37.5833 37.6666C37.5833 35.375 35.7083 33.5 33.4167 33.5Z" fill="#00A99F"/>
</svg>
